<?xml version="1.0"?>
<svg xmlns="http://www.w3.org/2000/svg" xmlns:xlink="http://www.w3.org/1999/xlink" version="1.1" id="Layer_1" x="0px" y="0px" viewBox="0 0 473.935 473.935" style="enable-background:new 0 0 473.935 473.935;" xml:space="preserve" width="512px" height="512px" class=""><g><circle style="fill:#5BA545" cx="236.967" cy="236.967" r="236.967" data-original="#5BA545" class=""/><path style="fill:#5BA545" d="M404.274,69.13c92.546,92.549,92.553,242.591,0,335.148c-92.542,92.542-242.595,92.542-335.144,0  L404.274,69.13z" data-original="#539A44" class="" data-old_color="#539A44"/><path style="fill:#5BA545" d="M472.12,265.824L328.001,121.705l-43.031,43.031l-20.58-20.58l-21.048,21.048l-78.11-78.11  l-62.364,62.368l78.11,78.11l-66.417,66.417l174.199,174.199C385.546,446.594,459.963,365.838,472.12,265.824z" data-original="#518E42" class="active-path" data-old_color="#518E42"/><path style="fill:#FFFFFF;" d="M152.852,150.012l-50.331-0.056l63.06-63.446l0.011,51.173L152.852,150.012z M331.152,124.811  c-5.366-9.25-33.433-19.899-48-19.899c-14.548,0-37.534,0-37.534,0s-12.049-21.818-40.385-21.818  c-28.359,0-26.451,12.64-26.451,23.435v43.629l-12.849,13.564h-59.349c0,0-16.718,11.057-16.718,34.96  c0,23.906,7.42,107.202,57.223,114.903c58.929,9.126,69.017-18.256,69.017-21.553c0-13.871,0.352-34.881,0.352-34.881  s17.257,32.969,43.315,32.969s41.216,14.967,41.216,30.387c0,15.427,0,28.524,0,28.524s-0.969,17.852-16.288,17.852  c-15.338,0-32.703,0-32.703,0s-10.735-8.359-10.735-19.921c0-11.555,5.25-14.698,11.375-14.698c6.125,0,11.158,0.707,11.158,0.707  v-24.31c0,0-49.354-0.322-49.354,37.47c0,37.785,25.807,47.487,46.503,47.487c20.673,0,33.714,0,33.714,0  s60.871-7.828,60.871-128.089C355.533,145.252,336.521,134.065,331.152,124.811z M270.621,232.616c0,0,2.964-19.831,14.462-19.831  c11.502,0,27.296,26.481,27.296,26.481S276.346,232.616,270.621,232.616z" data-original="#FFFFFF"/></g> </svg>
