<?xml version="1.0" encoding="iso-8859-1"?>
<!-- Generator: Adobe Illustrator 19.0.0, SVG Export Plug-In . SVG Version: 6.00 Build 0)  -->
<svg version="1.1" id="Layer_1" xmlns="http://www.w3.org/2000/svg" xmlns:xlink="http://www.w3.org/1999/xlink" x="0px" y="0px"
	 viewBox="0 0 512 512" style="enable-background:new 0 0 512 512;" xml:space="preserve">
<path style="fill:#FE2806;" d="M361.931,185.379V22.952C328.386,7.945,293.076,0,256,0c-27.366,0-53.848,4.414-79.448,13.241
	L361.931,185.379z"/>
<path style="fill:#6E6DC6;" d="M22.952,361.931c21.186,46.786,55.614,86.51,100.634,113.876V264.828L22.952,361.931z"/>
<path style="fill:#AE75C5;" d="M0,256.883c0,22.069,3.531,44.138,9.71,66.207c6.179-5.297,222.455-201.269,226.869-205.683
	c-4.414-3.531-93.572-85.628-97.103-88.276C52.966,74.152,0,160.662,0,256.883"/>
<path style="fill:#47B044;" d="M158.897,494.345c23.834,9.71,48.552,15.007,73.269,17.655h46.786
	c88.276-7.945,167.724-60.028,206.566-141.241H158.897V494.345z"/>
<path style="fill:#EF9A24;" d="M500.524,335.448C508.469,310.731,512,282.483,512,256.883c0-85.628-44.138-165.076-114.759-212.745
	v291.31H500.524z"/>
<g>
</g>
<g>
</g>
<g>
</g>
<g>
</g>
<g>
</g>
<g>
</g>
<g>
</g>
<g>
</g>
<g>
</g>
<g>
</g>
<g>
</g>
<g>
</g>
<g>
</g>
<g>
</g>
<g>
</g>
</svg>
